<svg xmlns="http://www.w3.org/2000/svg" width="265.471" height="231.966" viewBox="0 0 265.471 231.966">
  <g id="undraw_empty_cart_co35" transform="translate(0 0)">
    <path id="Path_1" data-name="Path 1" d="M188.171,753.9c3.68,7.148,11.489,10.217,11.489,10.217s1.844-8.521-1.836-15.669-11.489-10.217-11.489-10.217S184.491,746.748,188.171,753.9Z" transform="translate(-175.844 -532.857)" fill="#2f2e41"/>
    <path id="Path_2" data-name="Path 2" d="M166.856,774.65c6.643,4.187,9.2,12.5,9.2,12.5s-8.213,1.528-14.856-2.659-9.2-12.5-9.2-12.5S160.212,770.463,166.856,774.65Z" transform="translate(-152 -555.962)" fill="#d3f926"/>
    <rect id="Rectangle_12" data-name="Rectangle 12" width="41.45" height="0.62" transform="translate(122.352 11.136)" fill="#f2f2f2"/>
    <rect id="Rectangle_13" data-name="Rectangle 13" width="0.592" height="5.737" transform="translate(151.959 11.601)" fill="#f2f2f2"/>
    <rect id="Rectangle_14" data-name="Rectangle 14" width="0.592" height="5.737" transform="translate(133.899 11.601)" fill="#f2f2f2"/>
    <rect id="Rectangle_15" data-name="Rectangle 15" width="41.45" height="0.62" transform="translate(143.373 40.908)" fill="#f2f2f2"/>
    <rect id="Rectangle_16" data-name="Rectangle 16" width="0.592" height="5.737" transform="translate(154.624 35.326)" fill="#f2f2f2"/>
    <rect id="Rectangle_17" data-name="Rectangle 17" width="0.592" height="5.737" transform="translate(172.684 35.326)" fill="#f2f2f2"/>
    <rect id="Rectangle_18" data-name="Rectangle 18" width="41.45" height="0.62" transform="translate(198.443 54.864)" fill="#f2f2f2"/>
    <rect id="Rectangle_19" data-name="Rectangle 19" width="0.592" height="5.737" transform="translate(209.694 49.282)" fill="#f2f2f2"/>
    <rect id="Rectangle_20" data-name="Rectangle 20" width="0.592" height="5.737" transform="translate(227.754 49.282)" fill="#f2f2f2"/>
    <rect id="Rectangle_21" data-name="Rectangle 21" width="41.45" height="0.62" transform="translate(194.298 198.763)" fill="#f2f2f2"/>
    <rect id="Rectangle_22" data-name="Rectangle 22" width="0.592" height="5.737" transform="translate(205.549 193.181)" fill="#f2f2f2"/>
    <rect id="Rectangle_23" data-name="Rectangle 23" width="0.592" height="5.737" transform="translate(223.609 193.181)" fill="#f2f2f2"/>
    <rect id="Rectangle_24" data-name="Rectangle 24" width="41.45" height="0.62" transform="translate(123.536 99.212)" fill="#f2f2f2"/>
    <rect id="Rectangle_25" data-name="Rectangle 25" width="0.592" height="5.737" transform="translate(134.787 93.63)" fill="#f2f2f2"/>
    <rect id="Rectangle_26" data-name="Rectangle 26" width="0.592" height="5.737" transform="translate(152.847 93.63)" fill="#f2f2f2"/>
    <rect id="Rectangle_27" data-name="Rectangle 27" width="41.45" height="0.62" transform="translate(136.564 173.953)" fill="#f2f2f2"/>
    <rect id="Rectangle_28" data-name="Rectangle 28" width="0.592" height="5.737" transform="translate(147.814 168.37)" fill="#f2f2f2"/>
    <rect id="Rectangle_29" data-name="Rectangle 29" width="0.592" height="5.737" transform="translate(165.875 168.37)" fill="#f2f2f2"/>
    <rect id="Rectangle_30" data-name="Rectangle 30" width="41.45" height="0.62" transform="translate(202.884 151.313)" fill="#f2f2f2"/>
    <rect id="Rectangle_31" data-name="Rectangle 31" width="0.592" height="5.737" transform="translate(214.135 145.731)" fill="#f2f2f2"/>
    <rect id="Rectangle_32" data-name="Rectangle 32" width="0.592" height="5.737" transform="translate(232.195 145.731)" fill="#f2f2f2"/>
    <path id="Path_3" data-name="Path 3" d="M195.38,628.48H125.274v-.528h69.6V602.329H131.168l-3.095-6.754.455-.229,2.957,6.454h63.9Z" transform="translate(-88.184 -410.714)" fill="#2f2e41"/>
    <ellipse id="Ellipse_1" data-name="Ellipse 1" cx="5.296" cy="5.547" rx="5.296" ry="5.547" transform="translate(41.125 219.615)" fill="#3f3d56"/>
    <ellipse id="Ellipse_2" data-name="Ellipse 2" cx="5.296" cy="5.547" rx="5.296" ry="5.547" transform="translate(93.327 219.615)" fill="#3f3d56"/>
    <ellipse id="Ellipse_3" data-name="Ellipse 3" cx="3.278" cy="3.434" rx="3.278" ry="3.434" transform="translate(156.876 103.917)" fill="#3f3d56"/>
    <path id="Path_4" data-name="Path 4" d="M311.5,535.908H232.7l-17.051-58.377h113.41l-.1.344Zm-78.426-.528h78.057l17.242-57.321H216.33Z" transform="translate(-196.803 -353.01)" fill="#2f2e41"/>
    <path id="Path_5" data-name="Path 5" d="M166.449,464.789H97.236L82.26,413.015h99.611l-.091.3Z" transform="translate(-57.905 -284.928)" fill="#f2f2f2"/>
    <path id="Path_6" data-name="Path 6" d="M450.306,355.169l-.488-.136,3.328-13.14h19.36v.528H453.534Z" transform="translate(-316.639 -235.863)" fill="#2f2e41"/>
    <rect id="Rectangle_33" data-name="Rectangle 33" width="102.232" height="0.528" transform="translate(24.355 142.219)" fill="#2f2e41"/>
    <rect id="Rectangle_34" data-name="Rectangle 34" width="90.693" height="0.528" transform="translate(30.039 161.683)" fill="#2f2e41"/>
    <rect id="Rectangle_35" data-name="Rectangle 35" width="0.504" height="57.849" transform="translate(75.296 124.785)" fill="#2f2e41"/>
    <path id="Path_21" data-name="Path 21" d="M.055,2.012l57.96-.171,0,.5L.054,2.516Z" transform="matrix(0.065, -0.998, 0.998, 0.065, 92.75, 182.54)" fill="#2f2e41"/>
    <path id="Path_22" data-name="Path 22" d="M2,.055l.5,0-.17,57.961-.5,0Z" transform="translate(50.222 124.877) rotate(-3.729)" fill="#2f2e41"/>
    <rect id="Rectangle_38" data-name="Rectangle 38" width="265.471" height="0.458" transform="translate(0 231.064)" fill="#2f2e41"/>
    <path id="Path_7" data-name="Path 7" d="M747.411,135.928s4.328,12.9,1.665,14.888,8.989,18.2,8.989,18.2l13.983-3.97-7.657-13.565s-1-13.565-1-15.55S747.411,135.928,747.411,135.928Z" transform="translate(-571.125 -116.738)" fill="#a0616a"/>
    <path id="Path_8" data-name="Path 8" d="M747.411,135.928s4.328,12.9,1.665,14.888,8.989,18.2,8.989,18.2l13.983-3.97-7.657-13.565s-1-13.565-1-15.55S747.411,135.928,747.411,135.928Z" transform="translate(-571.125 -116.738)" opacity="0.1"/>
    <path id="Path_9" data-name="Path 9" d="M721.539,412.759s-1.263,16.543,0,25.145,3.159,32.423,3.159,32.423,0,45,6.949,45.658,12,1.323,12.634-1.323-3.159-3.97-1.263-5.294,2.527-5.955,0-11.249,0-58.892,0-58.892l12,33.747s1.263,27.792,2.527,31.762-1.263,11.249,3.159,11.911,9.476-3.309,12-4.632-3.79-1.323-2.527-1.985,5.054-2.647,3.79-3.309-2.527-32.423-2.527-32.423-3.475-67.824-7.9-70.471-7.265,1.912-7.265,1.912Z" transform="translate(-552.518 -301.593)" fill="#2f2e41"/>
    <path id="Path_10" data-name="Path 10" d="M755.271,758.784v5.294s-5.685,14.39,0,14.39,10.107,1.491,10.107-.494V760.107Z" transform="translate(-574.88 -547.039)" fill="#2f2e41"/>
    <path id="Path_11" data-name="Path 11" d="M863.134,758.754v5.294s5.686,14.39,0,14.39-10.107,1.491-10.107-.494V760.077Z" transform="translate(-645.471 -547.018)" fill="#2f2e41"/>
    <ellipse id="Ellipse_4" data-name="Ellipse 4" cx="11.371" cy="11.911" rx="11.371" ry="11.911" transform="translate(173.759 4.963)" fill="#a0616a"/>
    <path id="Path_12" data-name="Path 12" d="M762.543,201.9s3.159,9.926,8.212,7.94l5.054-1.985,8.844,63.524s-6.949,10.587-17.056,3.97S762.543,201.9,762.543,201.9Z" transform="translate(-580.888 -162.859)" fill="#d3f926"/>
    <path id="Path_13" data-name="Path 13" d="M795.418,181.515l2.843-6.286S815,183.5,817.528,186.147a10.642,10.642,0,0,1,2.527,6.617l-4.422,16.543S816.9,245.7,816.9,247.024s4.422,8.6,1.263,5.955-3.79-5.294-6.317-1.323-8.212,8.6-8.212,8.6Z" transform="translate(-604.919 -144.46)" fill="#3f3d56"/>
    <path id="Path_14" data-name="Path 14" d="M843.692,349.122l-1.9,18.528s-11.371,10.587-8.844,11.249,3.79-1.985,3.79-1.985,4.422,4.632,6.949,1.985,8.844-27.792,8.844-27.792Z" transform="translate(-631.083 -264.424)" fill="#a0616a"/>
    <path id="Path_15" data-name="Path 15" d="M746.735,76.055c-2.521-.094-5.218-.141-7.344,1.282a11,11,0,0,0-2.538,2.6c-2.07,2.741-3.859,6.19-3.09,9.591l.893-.365a6.369,6.369,0,0,1-.564,2.624c.126-.383.547.236.434.624l-.984,3.381a3.033,3.033,0,0,1,3.875,2.422c.112-3.927.5-8.429,3.542-10.728a11.875,11.875,0,0,1,5.342-1.828,10.273,10.273,0,0,1,5.179.028,3.9,3.9,0,0,1,2.681,4.147,1.742,1.742,0,0,1,1.988,1.026,5.618,5.618,0,0,1,.407,2.467c.811.6,1.734-.592,2.064-1.573.776-2.3,1.465-4.753,1.047-7.156s-2.287-4.7-4.618-4.706a1.743,1.743,0,0,0,.421-1.194l-1.921-.17a2.1,2.1,0,0,0,1.269-.7C754.048,78.717,747.983,76.1,746.735,76.055Z" transform="translate(-561.363 -76.014)" fill="#2f2e41"/>
    <path id="Path_16" data-name="Path 16" d="M714.59,178.043s-5.143-5.279-6.993-4.955-4.378,4.955-4.378,4.955-15.161,5.294-14.529,10.587,7.581,31.1,7.581,31.1,5.685,31.1.632,34.409,24.005,11.911,24.637,7.94,1.9-43.672,0-49.628S714.59,178.043,714.59,178.043Z" transform="translate(-529.776 -142.973)" fill="#3f3d56"/>
    <path id="Path_17" data-name="Path 17" d="M850.893,223.236H858.7s5.455,25.145,6.086,27.792,1.9,15.219,1.263,15.219-13.266-2.647-13.266-.662Z" transform="translate(-643.969 -177.579)" fill="#3f3d56"/>
    <path id="Path_18" data-name="Path 18" d="M773.48,333.641h-29.9c-2.918-14.061-3.162-27.647,0-40.627h29.9C768.655,305.761,768.353,319.253,773.48,333.641Z" transform="translate(-566.821 -225.717)" fill="#f2f2f2"/>
    <path id="Path_19" data-name="Path 19" d="M707.938,355.257l8.844,3.97s17.056,2.647,17.056-4.632-17.056-3.309-17.056-3.309l-5.686-1.9Z" transform="translate(-543.339 -264.604)" fill="#a0616a"/>
    <path id="Path_20" data-name="Path 20" d="M681.458,210.435l-7.581,1.985-5.686,35.07s-1.9,9.264,1.263,9.926,12,5.955,12,5.955,1.263-9.926,3.79-9.926l-6.317-5.294,3.79-23.16Z" transform="translate(-514.964 -168.747)" fill="#3f3d56"/>
    <rect id="Rectangle_39" data-name="Rectangle 39" width="41.45" height="0.62" transform="translate(17.838 109.446)" fill="#f2f2f2"/>
    <rect id="Rectangle_40" data-name="Rectangle 40" width="0.592" height="5.737" transform="translate(29.089 103.864)" fill="#f2f2f2"/>
    <rect id="Rectangle_41" data-name="Rectangle 41" width="0.592" height="5.737" transform="translate(47.149 103.864)" fill="#f2f2f2"/>
    <rect id="Rectangle_42" data-name="Rectangle 42" width="41.45" height="0.62" transform="translate(32.345 17.649)" fill="#f2f2f2"/>
    <rect id="Rectangle_43" data-name="Rectangle 43" width="0.592" height="5.737" transform="translate(61.953 18.114)" fill="#f2f2f2"/>
    <rect id="Rectangle_44" data-name="Rectangle 44" width="0.592" height="5.737" transform="translate(43.893 18.114)" fill="#f2f2f2"/>
    <rect id="Rectangle_45" data-name="Rectangle 45" width="41.45" height="0.62" transform="translate(74.092 78.744)" fill="#f2f2f2"/>
    <rect id="Rectangle_46" data-name="Rectangle 46" width="0.592" height="5.737" transform="translate(103.7 79.209)" fill="#f2f2f2"/>
    <rect id="Rectangle_47" data-name="Rectangle 47" width="0.592" height="5.737" transform="translate(85.639 79.209)" fill="#f2f2f2"/>
    <rect id="Rectangle_48" data-name="Rectangle 48" width="41.45" height="0.62" transform="translate(3.626 78.434)" fill="#f2f2f2"/>
    <rect id="Rectangle_49" data-name="Rectangle 49" width="0.592" height="5.737" transform="translate(33.234 78.899)" fill="#f2f2f2"/>
    <rect id="Rectangle_50" data-name="Rectangle 50" width="0.592" height="5.737" transform="translate(15.173 78.899)" fill="#f2f2f2"/>
    <rect id="Rectangle_51" data-name="Rectangle 51" width="41.45" height="0.62" transform="translate(53.367 47.421)" fill="#f2f2f2"/>
    <rect id="Rectangle_52" data-name="Rectangle 52" width="0.592" height="5.737" transform="translate(64.618 41.839)" fill="#f2f2f2"/>
    <rect id="Rectangle_53" data-name="Rectangle 53" width="0.592" height="5.737" transform="translate(82.678 41.839)" fill="#f2f2f2"/>
  </g>
</svg>
